<svg width="528" height="338" viewBox="0 0 528 338" fill="none" xmlns="http://www.w3.org/2000/svg">
<path d="M131.909 132.502V118.146H146.338V132.502H131.909ZM131.909 118.146V103.425H146.338V118.146H131.909ZM131.909 103.425V88.7764H146.338V103.425H131.909ZM131.909 88.7764V74.0547H146.338V88.7764H131.909ZM131.909 74.0547V59.4062H146.338V74.0547H131.909ZM131.909 59.4062V44.6846H146.338V59.4062H131.909ZM131.909 44.6846V29.9629H146.338V44.6846H131.909ZM131.909 132.502V147.004H117.261V132.502H131.909ZM117.261 132.502V118.146H131.909V132.502H117.261ZM117.261 118.146V103.425H131.909V118.146H117.261ZM117.261 103.425V88.7764H131.909V103.425H117.261ZM117.261 88.7764V74.0547H131.909V88.7764H117.261ZM117.261 74.0547V59.4062H131.909V74.0547H117.261ZM117.261 59.4062V44.6846H131.909V59.4062H117.261ZM117.261 44.6846V29.9629H131.909V44.6846H117.261ZM117.261 29.9629V15.6074H131.909V29.9629H117.261ZM102.539 15.6074V0.885742H117.261V15.6074H102.539ZM117.261 132.502V147.004H102.539V132.502H117.261ZM102.539 132.502V118.146H117.261V132.502H102.539ZM102.539 118.146V103.425H117.261V118.146H102.539ZM102.539 74.0547V59.4062H117.261V74.0547H102.539ZM102.539 29.9629V15.6074H117.261V29.9629H102.539ZM87.8906 15.6074V0.885742H102.539V15.6074H87.8906ZM102.539 132.502V147.004H87.8906V132.502H102.539ZM87.8906 132.502V118.146H102.539V132.502H87.8906ZM73.1689 15.6074V0.885742H87.8906V15.6074H73.1689ZM87.8906 132.502V147.004H73.1689V132.502H87.8906ZM73.1689 132.502V118.146H87.8906V132.502H73.1689ZM73.1689 103.425V88.7764H87.8906V103.425H73.1689ZM73.1689 88.7764V74.0547H87.8906V88.7764H73.1689ZM73.1689 59.4062V44.6846H87.8906V59.4062H73.1689ZM73.1689 44.6846V29.9629H87.8906V44.6846H73.1689ZM58.4473 15.6074V0.885742H73.1689V15.6074H58.4473ZM73.1689 132.502V147.004H58.4473V132.502H73.1689ZM58.4473 132.502V118.146H73.1689V132.502H58.4473ZM58.4473 103.425V88.7764H73.1689V103.425H58.4473ZM58.4473 88.7764V74.0547H73.1689V88.7764H58.4473ZM58.4473 59.4062V44.6846H73.1689V59.4062H58.4473ZM58.4473 44.6846V29.9629H73.1689V44.6846H58.4473ZM44.0918 15.6074V0.885742H58.4473V15.6074H44.0918ZM58.4473 132.502V147.004H44.0918V132.502H58.4473ZM44.0918 132.502V118.146H58.4473V132.502H44.0918ZM44.0918 103.425V88.7764H58.4473V103.425H44.0918ZM44.0918 88.7764V74.0547H58.4473V88.7764H44.0918ZM44.0918 59.4062V44.6846H58.4473V59.4062H44.0918ZM44.0918 44.6846V29.9629H58.4473V44.6846H44.0918ZM29.3701 15.6074V0.885742H44.0918V15.6074H29.3701ZM44.0918 132.502V147.004H29.3701V132.502H44.0918ZM29.3701 132.502V118.146H44.0918V132.502H29.3701ZM14.7217 15.6074V0.885742H29.3701V15.6074H14.7217ZM29.3701 132.502V147.004H14.7217V132.502H29.3701ZM14.7217 132.502V118.146H29.3701V132.502H14.7217ZM0 15.6074V0.885742H14.7217V15.6074H0ZM0 132.502V118.146H14.7217V132.502H0ZM0 118.146V103.425H14.7217V118.146H0ZM0 103.425V88.7764H14.7217V103.425H0ZM0 88.7764V74.0547H14.7217V88.7764H0ZM0 74.0547V59.4062H14.7217V74.0547H0ZM0 59.4062V44.6846H14.7217V59.4062H0ZM0 44.6846V29.9629H14.7217V44.6846H0ZM0 29.9629V15.6074H14.7217V29.9629H0ZM278.32 132.502V147.004H263.892V132.502H278.32ZM263.892 132.502V118.146H278.32V132.502H263.892ZM263.892 118.146V103.425H278.32V118.146H263.892ZM263.892 59.4062V44.6846H278.32V59.4062H263.892ZM263.892 44.6846V29.9629H278.32V44.6846H263.892ZM263.892 29.9629V15.6074H278.32V29.9629H263.892ZM249.243 15.6074V0.885742H263.892V15.6074H249.243ZM263.892 132.502V147.004H249.243V132.502H263.892ZM249.243 132.502V118.146H263.892V132.502H249.243ZM249.243 118.146V103.425H263.892V118.146H249.243ZM249.243 103.425V88.7764H263.892V103.425H249.243ZM249.243 88.7764V74.0547H263.892V88.7764H249.243ZM249.243 74.0547V59.4062H263.892V74.0547H249.243ZM249.243 59.4062V44.6846H263.892V59.4062H249.243ZM249.243 44.6846V29.9629H263.892V44.6846H249.243ZM249.243 29.9629V15.6074H263.892V29.9629H249.243ZM234.521 15.6074V0.885742H249.243V15.6074H234.521ZM249.243 132.502V147.004H234.521V132.502H249.243ZM234.521 132.502V118.146H249.243V132.502H234.521ZM234.521 103.425V88.7764H249.243V103.425H234.521ZM234.521 88.7764V74.0547H249.243V88.7764H234.521ZM234.521 74.0547V59.4062H249.243V74.0547H234.521ZM234.521 59.4062V44.6846H249.243V59.4062H234.521ZM234.521 44.6846V29.9629H249.243V44.6846H234.521ZM219.873 15.6074V0.885742H234.521V15.6074H219.873ZM234.521 132.502V147.004H219.873V132.502H234.521ZM219.873 132.502V118.146H234.521V132.502H219.873ZM219.873 103.425V88.7764H234.521V103.425H219.873ZM219.873 88.7764V74.0547H234.521V88.7764H219.873ZM219.873 59.4062V44.6846H234.521V59.4062H219.873ZM219.873 44.6846V29.9629H234.521V44.6846H219.873ZM205.151 15.6074V0.885742H219.873V15.6074H205.151ZM219.873 132.502V147.004H205.151V132.502H219.873ZM205.151 132.502V118.146H219.873V132.502H205.151ZM205.151 103.425V88.7764H219.873V103.425H205.151ZM205.151 88.7764V74.0547H219.873V88.7764H205.151ZM205.151 59.4062V44.6846H219.873V59.4062H205.151ZM205.151 44.6846V29.9629H219.873V44.6846H205.151ZM190.43 15.6074V0.885742H205.151V15.6074H190.43ZM205.151 132.502V147.004H190.43V132.502H205.151ZM190.43 132.502V118.146H205.151V132.502H190.43ZM190.43 103.425V88.7764H205.151V103.425H190.43ZM190.43 88.7764V74.0547H205.151V88.7764H190.43ZM190.43 59.4062V44.6846H205.151V59.4062H190.43ZM190.43 44.6846V29.9629H205.151V44.6846H190.43ZM176.074 15.6074V0.885742H190.43V15.6074H176.074ZM190.43 132.502V147.004H176.074V132.502H190.43ZM176.074 132.502V118.146H190.43V132.502H176.074ZM176.074 103.425V88.7764H190.43V103.425H176.074ZM176.074 88.7764V74.0547H190.43V88.7764H176.074ZM176.074 59.4062V44.6846H190.43V59.4062H176.074ZM176.074 44.6846V29.9629H190.43V44.6846H176.074ZM161.353 15.6074V0.885742H176.074V15.6074H161.353ZM176.074 132.502V147.004H161.353V132.502H176.074ZM161.353 132.502V118.146H176.074V132.502H161.353ZM146.704 15.6074V0.885742H161.353V15.6074H146.704ZM161.353 132.502V147.004H146.704V132.502H161.353ZM146.704 132.502V118.146H161.353V132.502H146.704ZM131.982 15.6074V0.885742H146.704V15.6074H131.982ZM131.982 132.502V118.146H146.704V132.502H131.982ZM131.982 118.146V103.425H146.704V118.146H131.982ZM131.982 103.425V88.7764H146.704V103.425H131.982ZM131.982 88.7764V74.0547H146.704V88.7764H131.982ZM131.982 74.0547V59.4062H146.704V74.0547H131.982ZM131.982 59.4062V44.6846H146.704V59.4062H131.982ZM131.982 44.6846V29.9629H146.704V44.6846H131.982ZM131.982 29.9629V15.6074H146.704V29.9629H131.982ZM381.226 59.4062V44.6846H395.874V59.4062H381.226ZM381.226 44.6846V29.9629H395.874V44.6846H381.226ZM381.226 29.9629V15.6074H395.874V29.9629H381.226ZM366.504 15.6074V0.885742H381.226V15.6074H366.504ZM366.504 59.4062V44.6846H381.226V59.4062H366.504ZM366.504 44.6846V29.9629H381.226V44.6846H366.504ZM366.504 29.9629V15.6074H381.226V29.9629H366.504ZM351.855 15.6074V0.885742H366.504V15.6074H351.855ZM366.504 132.502V147.004H351.855V132.502H366.504ZM351.855 132.502V118.146H366.504V132.502H351.855ZM351.855 118.146V103.425H366.504V118.146H351.855ZM351.855 103.425V88.7764H366.504V103.425H351.855ZM351.855 88.7764V74.0547H366.504V88.7764H351.855ZM351.855 74.0547V59.4062H366.504V74.0547H351.855ZM351.855 59.4062V44.6846H366.504V59.4062H351.855ZM351.855 44.6846V29.9629H366.504V44.6846H351.855ZM337.134 15.6074V0.885742H351.855V15.6074H337.134ZM351.855 132.502V147.004H337.134V132.502H351.855ZM337.134 132.502V118.146H351.855V132.502H337.134ZM337.134 118.146V103.425H351.855V118.146H337.134ZM337.134 103.425V88.7764H351.855V103.425H337.134ZM337.134 88.7764V74.0547H351.855V88.7764H337.134ZM337.134 74.0547V59.4062H351.855V74.0547H337.134ZM337.134 59.4062V44.6846H351.855V59.4062H337.134ZM337.134 44.6846V29.9629H351.855V44.6846H337.134ZM322.412 15.6074V0.885742H337.134V15.6074H322.412ZM337.134 132.502V147.004H322.412V132.502H337.134ZM322.412 132.502V118.146H337.134V132.502H322.412ZM308.057 15.6074V0.885742H322.412V15.6074H308.057ZM322.412 132.502V147.004H308.057V132.502H322.412ZM308.057 132.502V118.146H322.412V132.502H308.057ZM293.335 15.6074V0.885742H308.057V15.6074H293.335ZM293.335 132.502V118.146H308.057V132.502H293.335ZM293.335 118.146V103.425H308.057V118.146H293.335ZM293.335 103.425V88.7764H308.057V103.425H293.335ZM293.335 88.7764V74.0547H308.057V88.7764H293.335ZM293.335 74.0547V59.4062H308.057V74.0547H293.335ZM293.335 59.4062V44.6846H308.057V59.4062H293.335ZM293.335 44.6846V29.9629H308.057V44.6846H293.335ZM278.687 15.6074V0.885742H293.335V15.6074H278.687ZM278.687 44.6846V29.9629H293.335V44.6846H278.687ZM263.965 15.6074V0.885742H278.687V15.6074H263.965ZM263.965 44.6846V29.9629H278.687V44.6846H263.965ZM263.965 29.9629V15.6074H278.687V29.9629H263.965ZM527.637 132.502V147.004H513.208V132.502H527.637ZM513.208 132.502V118.146H527.637V132.502H513.208ZM513.208 118.146V103.425H527.637V118.146H513.208ZM513.208 103.425V88.7764H527.637V103.425H513.208ZM513.208 88.7764V74.0547H527.637V88.7764H513.208ZM513.208 74.0547V59.4062H527.637V74.0547H513.208ZM513.208 59.4062V44.6846H527.637V59.4062H513.208ZM513.208 44.6846V29.9629H527.637V44.6846H513.208ZM513.208 132.502V147.004H498.56V132.502H513.208ZM498.56 132.502V118.146H513.208V132.502H498.56ZM498.56 118.146V103.425H513.208V118.146H498.56ZM498.56 103.425V88.7764H513.208V103.425H498.56ZM498.56 88.7764V74.0547H513.208V88.7764H498.56ZM498.56 74.0547V59.4062H513.208V74.0547H498.56ZM498.56 59.4062V44.6846H513.208V59.4062H498.56ZM498.56 44.6846V29.9629H513.208V44.6846H498.56ZM498.56 29.9629V15.6074H513.208V29.9629H498.56ZM483.838 15.6074V0.885742H498.56V15.6074H483.838ZM498.56 132.502V147.004H483.838V132.502H498.56ZM483.838 132.502V118.146H498.56V132.502H483.838ZM483.838 29.9629V15.6074H498.56V29.9629H483.838ZM469.189 15.6074V0.885742H483.838V15.6074H469.189ZM483.838 132.502V147.004H469.189V132.502H483.838ZM469.189 132.502V118.146H483.838V132.502H469.189ZM454.468 15.6074V0.885742H469.189V15.6074H454.468ZM454.468 132.502V118.146H469.189V132.502H454.468ZM454.468 118.146V103.425H469.189V118.146H454.468ZM454.468 103.425V88.7764H469.189V103.425H454.468ZM454.468 74.0547V59.4062H469.189V74.0547H454.468ZM454.468 59.4062V44.6846H469.189V59.4062H454.468ZM454.468 44.6846V29.9629H469.189V44.6846H454.468ZM439.746 15.6074V0.885742H454.468V15.6074H439.746ZM454.468 132.502V147.004H439.746V132.502H454.468ZM439.746 132.502V118.146H454.468V132.502H439.746ZM439.746 118.146V103.425H454.468V118.146H439.746ZM439.746 103.425V88.7764H454.468V103.425H439.746ZM439.746 74.0547V59.4062H454.468V74.0547H439.746ZM439.746 59.4062V44.6846H454.468V59.4062H439.746ZM439.746 44.6846V29.9629H454.468V44.6846H439.746ZM425.391 15.6074V0.885742H439.746V15.6074H425.391ZM439.746 132.502V147.004H425.391V132.502H439.746ZM425.391 132.502V118.146H439.746V132.502H425.391ZM425.391 118.146V103.425H439.746V118.146H425.391ZM425.391 103.425V88.7764H439.746V103.425H425.391ZM425.391 74.0547V59.4062H439.746V74.0547H425.391ZM425.391 59.4062V44.6846H439.746V59.4062H425.391ZM425.391 44.6846V29.9629H439.746V44.6846H425.391ZM410.669 15.6074V0.885742H425.391V15.6074H410.669ZM425.391 132.502V147.004H410.669V132.502H425.391ZM410.669 132.502V118.146H425.391V132.502H410.669ZM396.021 15.6074V0.885742H410.669V15.6074H396.021ZM410.669 132.502V147.004H396.021V132.502H410.669ZM396.021 132.502V118.146H410.669V132.502H396.021ZM396.021 29.9629V15.6074H410.669V29.9629H396.021ZM381.299 132.502V118.146H396.021V132.502H381.299ZM381.299 118.146V103.425H396.021V118.146H381.299ZM381.299 103.425V88.7764H396.021V103.425H381.299ZM381.299 88.7764V74.0547H396.021V88.7764H381.299ZM381.299 74.0547V59.4062H396.021V74.0547H381.299ZM381.299 59.4062V44.6846H396.021V59.4062H381.299ZM381.299 44.6846V29.9629H396.021V44.6846H381.299ZM381.299 29.9629V15.6074H396.021V29.9629H381.299ZM131.909 322.502V308.146H146.338V322.502H131.909ZM131.909 308.146V293.425H146.338V308.146H131.909ZM131.909 293.425V278.776H146.338V293.425H131.909ZM131.909 264.055V249.406H146.338V264.055H131.909ZM131.909 249.406V234.685H146.338V249.406H131.909ZM131.909 234.685V219.963H146.338V234.685H131.909ZM131.909 322.502V337.004H117.261V322.502H131.909ZM117.261 322.502V308.146H131.909V322.502H117.261ZM117.261 308.146V293.425H131.909V308.146H117.261ZM117.261 293.425V278.776H131.909V293.425H117.261ZM117.261 278.776V264.055H131.909V278.776H117.261ZM117.261 264.055V249.406H131.909V264.055H117.261ZM117.261 249.406V234.685H131.909V249.406H117.261ZM117.261 234.685V219.963H131.909V234.685H117.261ZM117.261 219.963V205.607H131.909V219.963H117.261ZM102.539 205.607V190.886H117.261V205.607H102.539ZM117.261 322.502V337.004H102.539V322.502H117.261ZM102.539 322.502V308.146H117.261V322.502H102.539ZM102.539 308.146V293.425H117.261V308.146H102.539ZM102.539 278.776V264.055H117.261V278.776H102.539ZM102.539 264.055V249.406H117.261V264.055H102.539ZM102.539 249.406V234.685H117.261V249.406H102.539ZM102.539 219.963V205.607H117.261V219.963H102.539ZM87.8906 205.607V190.886H102.539V205.607H87.8906ZM102.539 322.502V337.004H87.8906V322.502H102.539ZM87.8906 322.502V308.146H102.539V322.502H87.8906ZM87.8906 278.776V264.055H102.539V278.776H87.8906ZM87.8906 264.055V249.406H102.539V264.055H87.8906ZM87.8906 249.406V234.685H102.539V249.406H87.8906ZM73.1689 205.607V190.886H87.8906V205.607H73.1689ZM87.8906 322.502V337.004H73.1689V322.502H87.8906ZM73.1689 322.502V308.146H87.8906V322.502H73.1689ZM73.1689 293.425V278.776H87.8906V293.425H73.1689ZM73.1689 278.776V264.055H87.8906V278.776H73.1689ZM73.1689 264.055V249.406H87.8906V264.055H73.1689ZM73.1689 249.406V234.685H87.8906V249.406H73.1689ZM73.1689 234.685V219.963H87.8906V234.685H73.1689ZM58.4473 205.607V190.886H73.1689V205.607H58.4473ZM73.1689 322.502V337.004H58.4473V322.502H73.1689ZM58.4473 322.502V308.146H73.1689V322.502H58.4473ZM58.4473 293.425V278.776H73.1689V293.425H58.4473ZM58.4473 278.776V264.055H73.1689V278.776H58.4473ZM58.4473 264.055V249.406H73.1689V264.055H58.4473ZM58.4473 249.406V234.685H73.1689V249.406H58.4473ZM58.4473 234.685V219.963H73.1689V234.685H58.4473ZM44.0918 205.607V190.886H58.4473V205.607H44.0918ZM58.4473 322.502V337.004H44.0918V322.502H58.4473ZM44.0918 322.502V308.146H58.4473V322.502H44.0918ZM44.0918 293.425V278.776H58.4473V293.425H44.0918ZM44.0918 278.776V264.055H58.4473V278.776H44.0918ZM44.0918 264.055V249.406H58.4473V264.055H44.0918ZM44.0918 249.406V234.685H58.4473V249.406H44.0918ZM44.0918 234.685V219.963H58.4473V234.685H44.0918ZM29.3701 205.607V190.886H44.0918V205.607H29.3701ZM44.0918 322.502V337.004H29.3701V322.502H44.0918ZM29.3701 322.502V308.146H44.0918V322.502H29.3701ZM14.7217 205.607V190.886H29.3701V205.607H14.7217ZM14.7217 322.502V308.146H29.3701V322.502H14.7217ZM14.7217 308.146V293.425H29.3701V308.146H14.7217ZM14.7217 219.963V205.607H29.3701V219.963H14.7217ZM0 308.146V293.425H14.7217V308.146H0ZM0 293.425V278.776H14.7217V293.425H0ZM0 278.776V264.055H14.7217V278.776H0ZM0 264.055V249.406H14.7217V264.055H0ZM0 249.406V234.685H14.7217V249.406H0ZM0 234.685V219.963H14.7217V234.685H0ZM0 219.963V205.607H14.7217V219.963H0ZM263.892 322.502V337.004H249.243V322.502H263.892ZM249.243 322.502V308.146H263.892V322.502H249.243ZM249.243 308.146V293.425H263.892V308.146H249.243ZM249.243 322.502V337.004H234.521V322.502H249.243ZM234.521 322.502V308.146H249.243V322.502H234.521ZM234.521 308.146V293.425H249.243V308.146H234.521ZM234.521 293.425V278.776H249.243V293.425H234.521ZM234.521 322.502V337.004H219.873V322.502H234.521ZM219.873 322.502V308.146H234.521V322.502H219.873ZM219.873 293.425V278.776H234.521V293.425H219.873ZM219.873 322.502V337.004H205.151V322.502H219.873ZM205.151 322.502V308.146H219.873V322.502H205.151ZM205.151 293.425V278.776H219.873V293.425H205.151ZM205.151 322.502V337.004H190.43V322.502H205.151ZM190.43 322.502V308.146H205.151V322.502H190.43ZM190.43 293.425V278.776H205.151V293.425H190.43ZM190.43 278.776V264.055H205.151V278.776H190.43ZM190.43 264.055V249.406H205.151V264.055H190.43ZM190.43 249.406V234.685H205.151V249.406H190.43ZM190.43 234.685V219.963H205.151V234.685H190.43ZM190.43 219.963V205.607H205.151V219.963H190.43ZM176.074 205.607V190.886H190.43V205.607H176.074ZM190.43 322.502V337.004H176.074V322.502H190.43ZM176.074 322.502V308.146H190.43V322.502H176.074ZM176.074 293.425V278.776H190.43V293.425H176.074ZM176.074 278.776V264.055H190.43V278.776H176.074ZM176.074 264.055V249.406H190.43V264.055H176.074ZM176.074 249.406V234.685H190.43V249.406H176.074ZM176.074 234.685V219.963H190.43V234.685H176.074ZM176.074 219.963V205.607H190.43V219.963H176.074ZM161.353 205.607V190.886H176.074V205.607H161.353ZM176.074 322.502V337.004H161.353V322.502H176.074ZM161.353 322.502V308.146H176.074V322.502H161.353ZM146.704 205.607V190.886H161.353V205.607H146.704ZM161.353 322.502V337.004H146.704V322.502H161.353ZM146.704 322.502V308.146H161.353V322.502H146.704ZM131.982 205.607V190.886H146.704V205.607H131.982ZM131.982 322.502V308.146H146.704V322.502H131.982ZM131.982 308.146V293.425H146.704V308.146H131.982ZM131.982 293.425V278.776H146.704V293.425H131.982ZM131.982 278.776V264.055H146.704V278.776H131.982ZM131.982 264.055V249.406H146.704V264.055H131.982ZM131.982 249.406V234.685H146.704V249.406H131.982ZM131.982 234.685V219.963H146.704V234.685H131.982ZM131.982 219.963V205.607H146.704V219.963H131.982ZM381.226 322.502V308.146H395.654V322.502H381.226ZM381.226 308.146V293.425H395.654V308.146H381.226ZM381.226 293.425V278.776H395.654V293.425H381.226ZM381.226 278.776V264.055H395.654V278.776H381.226ZM381.226 264.055V249.406H395.654V264.055H381.226ZM381.226 249.406V234.685H395.654V249.406H381.226ZM381.226 234.685V219.963H395.654V234.685H381.226ZM381.226 219.963V205.607H395.654V219.963H381.226ZM366.577 205.607V190.886H381.226V205.607H366.577ZM381.226 322.502V337.004H366.577V322.502H381.226ZM366.577 322.502V308.146H381.226V322.502H366.577ZM366.577 308.146V293.425H381.226V308.146H366.577ZM366.577 293.425V278.776H381.226V293.425H366.577ZM366.577 278.776V264.055H381.226V278.776H366.577ZM366.577 264.055V249.406H381.226V264.055H366.577ZM366.577 249.406V234.685H381.226V249.406H366.577ZM366.577 234.685V219.963H381.226V234.685H366.577ZM366.577 219.963V205.607H381.226V219.963H366.577ZM351.855 205.607V190.886H366.577V205.607H351.855ZM366.577 322.502V337.004H351.855V322.502H366.577ZM351.855 322.502V308.146H366.577V322.502H351.855ZM351.855 308.146V293.425H366.577V308.146H351.855ZM337.207 205.607V190.886H351.855V205.607H337.207ZM351.855 322.502V337.004H337.207V322.502H351.855ZM337.207 322.502V308.146H351.855V322.502H337.207ZM322.485 205.607V190.886H337.207V205.607H322.485ZM337.207 322.502V337.004H322.485V322.502H337.207ZM322.485 322.502V308.146H337.207V322.502H322.485ZM322.485 293.425V278.776H337.207V293.425H322.485ZM322.485 278.776V264.055H337.207V278.776H322.485ZM322.485 264.055V249.406H337.207V264.055H322.485ZM322.485 249.406V234.685H337.207V249.406H322.485ZM322.485 234.685V219.963H337.207V234.685H322.485ZM322.485 219.963V205.607H337.207V219.963H322.485ZM322.485 322.502V337.004H307.764V322.502H322.485ZM307.764 322.502V308.146H322.485V322.502H307.764ZM307.764 293.425V278.776H322.485V293.425H307.764ZM307.764 278.776V264.055H322.485V278.776H307.764ZM307.764 264.055V249.406H322.485V264.055H307.764ZM307.764 249.406V234.685H322.485V249.406H307.764ZM307.764 234.685V219.963H322.485V234.685H307.764ZM307.764 219.963V205.607H322.485V219.963H307.764ZM293.408 205.607V190.886H307.764V205.607H293.408ZM307.764 322.502V337.004H293.408V322.502H307.764ZM293.408 322.502V308.146H307.764V322.502H293.408ZM293.408 293.425V278.776H307.764V293.425H293.408ZM293.408 278.776V264.055H307.764V278.776H293.408ZM293.408 264.055V249.406H307.764V264.055H293.408ZM293.408 249.406V234.685H307.764V249.406H293.408ZM293.408 234.685V219.963H307.764V234.685H293.408ZM293.408 219.963V205.607H307.764V219.963H293.408ZM278.687 205.607V190.886H293.408V205.607H278.687ZM293.408 322.502V337.004H278.687V322.502H293.408ZM278.687 322.502V308.146H293.408V322.502H278.687ZM264.038 205.607V190.886H278.687V205.607H264.038ZM264.038 322.502V308.146H278.687V322.502H264.038ZM264.038 308.146V293.425H278.687V308.146H264.038ZM249.316 205.607V190.886H264.038V205.607H249.316ZM249.316 308.146V293.425H264.038V308.146H249.316ZM249.316 293.425V278.776H264.038V293.425H249.316ZM249.316 278.776V264.055H264.038V278.776H249.316ZM249.316 264.055V249.406H264.038V264.055H249.316ZM249.316 249.406V234.685H264.038V249.406H249.316ZM249.316 234.685V219.963H264.038V234.685H249.316ZM249.316 219.963V205.607H264.038V219.963H249.316ZM513.208 322.502V308.146H527.637V322.502H513.208ZM513.208 308.146V293.425H527.637V308.146H513.208ZM513.208 293.425V278.776H527.637V293.425H513.208ZM513.208 278.776V264.055H527.637V278.776H513.208ZM513.208 264.055V249.406H527.637V264.055H513.208ZM513.208 249.406V234.685H527.637V249.406H513.208ZM513.208 234.685V219.963H527.637V234.685H513.208ZM513.208 322.502V337.004H498.56V322.502H513.208ZM498.56 322.502V308.146H513.208V322.502H498.56ZM498.56 308.146V293.425H513.208V308.146H498.56ZM498.56 293.425V278.776H513.208V293.425H498.56ZM498.56 278.776V264.055H513.208V278.776H498.56ZM498.56 264.055V249.406H513.208V264.055H498.56ZM498.56 249.406V234.685H513.208V249.406H498.56ZM498.56 234.685V219.963H513.208V234.685H498.56ZM498.56 219.963V205.607H513.208V219.963H498.56ZM483.838 205.607V190.886H498.56V205.607H483.838ZM498.56 322.502V337.004H483.838V322.502H498.56ZM483.838 322.502V308.146H498.56V322.502H483.838ZM483.838 308.146V293.425H498.56V308.146H483.838ZM483.838 264.055V249.406H498.56V264.055H483.838ZM483.838 219.963V205.607H498.56V219.963H483.838ZM469.189 205.607V190.886H483.838V205.607H469.189ZM483.838 322.502V337.004H469.189V322.502H483.838ZM469.189 322.502V308.146H483.838V322.502H469.189ZM454.468 205.607V190.886H469.189V205.607H454.468ZM469.189 322.502V337.004H454.468V322.502H469.189ZM454.468 322.502V308.146H469.189V322.502H454.468ZM454.468 293.425V278.776H469.189V293.425H454.468ZM454.468 278.776V264.055H469.189V278.776H454.468ZM454.468 249.406V234.685H469.189V249.406H454.468ZM454.468 234.685V219.963H469.189V234.685H454.468ZM439.746 205.607V190.886H454.468V205.607H439.746ZM454.468 322.502V337.004H439.746V322.502H454.468ZM439.746 322.502V308.146H454.468V322.502H439.746ZM439.746 293.425V278.776H454.468V293.425H439.746ZM439.746 278.776V264.055H454.468V278.776H439.746ZM439.746 249.406V234.685H454.468V249.406H439.746ZM439.746 234.685V219.963H454.468V234.685H439.746ZM425.391 205.607V190.886H439.746V205.607H425.391ZM439.746 322.502V337.004H425.391V322.502H439.746ZM425.391 322.502V308.146H439.746V322.502H425.391ZM425.391 293.425V278.776H439.746V293.425H425.391ZM425.391 278.776V264.055H439.746V278.776H425.391ZM425.391 249.406V234.685H439.746V249.406H425.391ZM425.391 234.685V219.963H439.746V234.685H425.391ZM410.669 205.607V190.886H425.391V205.607H410.669ZM425.391 322.502V337.004H410.669V322.502H425.391ZM410.669 322.502V308.146H425.391V322.502H410.669ZM396.021 205.607V190.886H410.669V205.607H396.021ZM410.669 322.502V337.004H396.021V322.502H410.669ZM396.021 322.502V308.146H410.669V322.502H396.021ZM381.299 205.607V190.886H396.021V205.607H381.299ZM381.299 322.502V308.146H396.021V322.502H381.299ZM381.299 308.146V293.425H396.021V308.146H381.299ZM381.299 293.425V278.776H396.021V293.425H381.299ZM381.299 278.776V264.055H396.021V278.776H381.299ZM381.299 264.055V249.406H396.021V264.055H381.299ZM381.299 249.406V234.685H396.021V249.406H381.299ZM381.299 234.685V219.963H396.021V234.685H381.299ZM381.299 219.963V205.607H396.021V219.963H381.299Z" fill="black"/>
</svg>
